# xmcd CD database file
#
# Track frame offsets:
#	150
#	32714
#	61625
#	82549
#	94665
#	129614
#	164693
#	190316
#
# Disc length: 3221 seconds
#
# Revision: 0
# Processed by: cddbd v1.5.2PL0 Copyright (c) Steve Scherf et al.
# Submitted via: CDex 1.51
#
DISCID=5b0c9308
DTITLE=Patrik - Relaxation
DYEAR=2000
DGENRE=New Age
TTITLE0=Awakening
TTITLE1=Mi Amore
TTITLE2=Butterfly Beach
TTITLE3=Irma's Garden
TTITLE4=Summer Love
TTITLE5=Precious Time
TTITLE6=Free As A Bird
TTITLE7=Flying Free
EXTD=YEAR: 2000
EXTT0=
EXTT1=
EXTT2=
EXTT3=
EXTT4=
EXTT5=
EXTT6=
EXTT7=
PLAYORDER=
